<svg xmlns="http://www.w3.org/2000/svg" viewBox="0 0 256 256">
  <defs>
    <linearGradient id="medigrad" x1="0" y1="0" x2="1" y2="1">
      <stop offset="0%" stop-color="#06b6d4"></stop>
      <stop offset="100%" stop-color="#14b8a6"></stop>
    </linearGradient>
  </defs>
  <rect width="256" height="256" rx="60" fill="url(#medigrad)"></rect>
  <path fill="white" d="M116 60h24a4 4 0 0 1 4 4v48h48a4 4 0 0 1 4 4v24a4 4 0 0 1-4 4h-48v48a4 4 0 0 1-4 4h-24a4 4 0 0 1-4-4v-48H60a4 4 0 0 1-4-4v-24a4 4 0 0 1 4-4h52V64a4 4 0 0 1 4-4Z"></path>
</svg>
